<mxfile host="Electron" modified="2023-08-02T02:53:08.018Z" agent="Mozilla/5.0 (Windows NT 10.0; Win64; x64) AppleWebKit/537.36 (KHTML, like Gecko) draw.io/21.6.5 Chrome/114.0.5735.243 Electron/25.3.1 Safari/537.36" etag="H9e3fQxhrwKj2vJIyytg" version="21.6.5" type="device">
  <diagram name="Page-1" id="bDlqiz4IERHXxEkZ9xLS">
    <mxGraphModel dx="864" dy="495" grid="1" gridSize="10" guides="1" tooltips="1" connect="1" arrows="1" fold="1" page="1" pageScale="1" pageWidth="1169" pageHeight="827" math="0" shadow="0">
      <root>
        <mxCell id="0" />
        <mxCell id="1" parent="0" />
        <mxCell id="pAZlCPyRJkJAHvEVyCS2-2" style="edgeStyle=orthogonalEdgeStyle;rounded=0;orthogonalLoop=1;jettySize=auto;html=1;exitX=1;exitY=0.25;exitDx=0;exitDy=0;entryX=0;entryY=0.25;entryDx=0;entryDy=0;endArrow=none;endFill=0;" edge="1" parent="1" source="jK_DcaLakZgWedDVneFn-19" target="pAZlCPyRJkJAHvEVyCS2-1">
          <mxGeometry relative="1" as="geometry" />
        </mxCell>
        <mxCell id="pAZlCPyRJkJAHvEVyCS2-3" value="tree" style="edgeLabel;html=1;align=center;verticalAlign=middle;resizable=0;points=[];" vertex="1" connectable="0" parent="pAZlCPyRJkJAHvEVyCS2-2">
          <mxGeometry x="-0.4857" y="-1" relative="1" as="geometry">
            <mxPoint x="-18" y="-12" as="offset" />
          </mxGeometry>
        </mxCell>
        <mxCell id="pAZlCPyRJkJAHvEVyCS2-4" value="tree species" style="edgeLabel;html=1;align=center;verticalAlign=middle;resizable=0;points=[];" vertex="1" connectable="0" parent="pAZlCPyRJkJAHvEVyCS2-2">
          <mxGeometry x="0.4143" y="1" relative="1" as="geometry">
            <mxPoint x="-1" y="-10" as="offset" />
          </mxGeometry>
        </mxCell>
        <mxCell id="pAZlCPyRJkJAHvEVyCS2-5" value="1" style="edgeLabel;html=1;align=center;verticalAlign=middle;resizable=0;points=[];" vertex="1" connectable="0" parent="pAZlCPyRJkJAHvEVyCS2-2">
          <mxGeometry x="0.4857" relative="1" as="geometry">
            <mxPoint x="24" y="10" as="offset" />
          </mxGeometry>
        </mxCell>
        <mxCell id="pAZlCPyRJkJAHvEVyCS2-6" value="*" style="edgeLabel;html=1;align=center;verticalAlign=middle;resizable=0;points=[];" vertex="1" connectable="0" parent="pAZlCPyRJkJAHvEVyCS2-2">
          <mxGeometry x="-0.6714" y="2" relative="1" as="geometry">
            <mxPoint x="-16" y="10" as="offset" />
          </mxGeometry>
        </mxCell>
        <mxCell id="pAZlCPyRJkJAHvEVyCS2-9" value="*" style="edgeLabel;html=1;align=center;verticalAlign=middle;resizable=0;points=[];" vertex="1" connectable="0" parent="pAZlCPyRJkJAHvEVyCS2-2">
          <mxGeometry x="-0.6714" y="2" relative="1" as="geometry">
            <mxPoint x="-16" y="32" as="offset" />
          </mxGeometry>
        </mxCell>
        <mxCell id="pAZlCPyRJkJAHvEVyCS2-7" style="edgeStyle=orthogonalEdgeStyle;rounded=0;orthogonalLoop=1;jettySize=auto;html=1;exitX=1;exitY=0.75;exitDx=0;exitDy=0;entryX=0.25;entryY=0;entryDx=0;entryDy=0;endArrow=none;endFill=0;" edge="1" parent="1" source="jK_DcaLakZgWedDVneFn-19" target="jK_DcaLakZgWedDVneFn-20">
          <mxGeometry relative="1" as="geometry" />
        </mxCell>
        <mxCell id="pAZlCPyRJkJAHvEVyCS2-8" value="actual&lt;br&gt;location" style="edgeLabel;html=1;align=center;verticalAlign=middle;resizable=0;points=[];" vertex="1" connectable="0" parent="pAZlCPyRJkJAHvEVyCS2-7">
          <mxGeometry x="0.687" y="-1" relative="1" as="geometry">
            <mxPoint x="-25" y="5" as="offset" />
          </mxGeometry>
        </mxCell>
        <mxCell id="pAZlCPyRJkJAHvEVyCS2-12" value="1" style="edgeLabel;html=1;align=center;verticalAlign=middle;resizable=0;points=[];" vertex="1" connectable="0" parent="pAZlCPyRJkJAHvEVyCS2-7">
          <mxGeometry x="0.773" relative="1" as="geometry">
            <mxPoint x="10" y="4" as="offset" />
          </mxGeometry>
        </mxCell>
        <mxCell id="jK_DcaLakZgWedDVneFn-19" value="&lt;b&gt;Tree&lt;/b&gt;" style="fontStyle=0;html=1;whiteSpace=wrap;" parent="1" vertex="1">
          <mxGeometry x="100" y="40" width="80" height="40" as="geometry" />
        </mxCell>
        <mxCell id="pAZlCPyRJkJAHvEVyCS2-13" style="edgeStyle=orthogonalEdgeStyle;rounded=0;orthogonalLoop=1;jettySize=auto;html=1;exitX=0.75;exitY=0;exitDx=0;exitDy=0;entryX=0.25;entryY=1;entryDx=0;entryDy=0;endArrow=none;endFill=0;" edge="1" parent="1" source="jK_DcaLakZgWedDVneFn-20" target="pAZlCPyRJkJAHvEVyCS2-1">
          <mxGeometry relative="1" as="geometry" />
        </mxCell>
        <mxCell id="pAZlCPyRJkJAHvEVyCS2-14" value="*" style="edgeLabel;html=1;align=center;verticalAlign=middle;resizable=0;points=[];" vertex="1" connectable="0" parent="pAZlCPyRJkJAHvEVyCS2-13">
          <mxGeometry x="-0.575" relative="1" as="geometry">
            <mxPoint x="-12" y="6" as="offset" />
          </mxGeometry>
        </mxCell>
        <mxCell id="pAZlCPyRJkJAHvEVyCS2-16" value="*" style="edgeLabel;html=1;align=center;verticalAlign=middle;resizable=0;points=[];" vertex="1" connectable="0" parent="pAZlCPyRJkJAHvEVyCS2-13">
          <mxGeometry x="0.65" y="-1" relative="1" as="geometry">
            <mxPoint x="-13" y="-3" as="offset" />
          </mxGeometry>
        </mxCell>
        <mxCell id="pAZlCPyRJkJAHvEVyCS2-17" value="general&lt;br&gt;locations" style="edgeLabel;html=1;align=center;verticalAlign=middle;resizable=0;points=[];" vertex="1" connectable="0" parent="pAZlCPyRJkJAHvEVyCS2-13">
          <mxGeometry x="-0.45" y="-1" relative="1" as="geometry">
            <mxPoint x="23" y="3" as="offset" />
          </mxGeometry>
        </mxCell>
        <mxCell id="jK_DcaLakZgWedDVneFn-20" value="&lt;b&gt;Geographic&lt;br&gt;Location&lt;br&gt;&lt;/b&gt;" style="fontStyle=0;html=1;whiteSpace=wrap;" parent="1" vertex="1">
          <mxGeometry x="250" y="160" width="100" height="40" as="geometry" />
        </mxCell>
        <mxCell id="pAZlCPyRJkJAHvEVyCS2-32" style="edgeStyle=orthogonalEdgeStyle;rounded=0;orthogonalLoop=1;jettySize=auto;html=1;exitX=0;exitY=0.5;exitDx=0;exitDy=0;endArrow=none;endFill=0;" edge="1" parent="1" source="jK_DcaLakZgWedDVneFn-21">
          <mxGeometry relative="1" as="geometry">
            <mxPoint x="80" y="210" as="targetPoint" />
          </mxGeometry>
        </mxCell>
        <mxCell id="jK_DcaLakZgWedDVneFn-21" value="&lt;b&gt;Apricot&lt;/b&gt;" style="fontStyle=0;html=1;whiteSpace=wrap;" parent="1" vertex="1">
          <mxGeometry x="100" y="190" width="80" height="40" as="geometry" />
        </mxCell>
        <mxCell id="pAZlCPyRJkJAHvEVyCS2-29" style="edgeStyle=orthogonalEdgeStyle;rounded=0;orthogonalLoop=1;jettySize=auto;html=1;exitX=0;exitY=0.5;exitDx=0;exitDy=0;endArrow=none;endFill=0;" edge="1" parent="1" source="jK_DcaLakZgWedDVneFn-22">
          <mxGeometry relative="1" as="geometry">
            <mxPoint x="80" y="160" as="targetPoint" />
          </mxGeometry>
        </mxCell>
        <mxCell id="jK_DcaLakZgWedDVneFn-22" value="&lt;b&gt;Sugar Maple&lt;/b&gt;" style="fontStyle=0;html=1;whiteSpace=wrap;" parent="1" vertex="1">
          <mxGeometry x="100" y="140" width="80" height="40" as="geometry" />
        </mxCell>
        <mxCell id="pAZlCPyRJkJAHvEVyCS2-1" value="&lt;b&gt;Tree Species&lt;/b&gt;" style="fontStyle=0;html=1;whiteSpace=wrap;" vertex="1" parent="1">
          <mxGeometry x="300" y="40" width="100" height="40" as="geometry" />
        </mxCell>
        <mxCell id="pAZlCPyRJkJAHvEVyCS2-22" value="&lt;b&gt;Tree Species&lt;/b&gt;" style="fontStyle=0;html=1;whiteSpace=wrap;" vertex="1" parent="1">
          <mxGeometry x="360" y="160" width="100" height="40" as="geometry" />
        </mxCell>
        <mxCell id="pAZlCPyRJkJAHvEVyCS2-33" style="edgeStyle=orthogonalEdgeStyle;rounded=0;orthogonalLoop=1;jettySize=auto;html=1;exitX=0;exitY=0.5;exitDx=0;exitDy=0;endArrow=none;endFill=0;" edge="1" parent="1" source="pAZlCPyRJkJAHvEVyCS2-24">
          <mxGeometry relative="1" as="geometry">
            <mxPoint x="80" y="260" as="targetPoint" />
          </mxGeometry>
        </mxCell>
        <mxCell id="pAZlCPyRJkJAHvEVyCS2-24" value="&lt;b&gt;American&lt;br&gt;Elm&lt;br&gt;&lt;/b&gt;" style="fontStyle=0;html=1;whiteSpace=wrap;" vertex="1" parent="1">
          <mxGeometry x="100" y="240" width="80" height="40" as="geometry" />
        </mxCell>
        <mxCell id="pAZlCPyRJkJAHvEVyCS2-25" value="&lt;b&gt;Saguaro&lt;/b&gt;" style="fontStyle=0;html=1;whiteSpace=wrap;" vertex="1" parent="1">
          <mxGeometry x="100" y="290" width="80" height="40" as="geometry" />
        </mxCell>
        <mxCell id="pAZlCPyRJkJAHvEVyCS2-26" value="{disjoint,&lt;br&gt;incomplete}" style="endArrow=block;html=1;rounded=0;align=center;verticalAlign=bottom;endFill=0;labelBackgroundColor=none;endSize=8;exitX=0;exitY=0.5;exitDx=0;exitDy=0;entryX=0.25;entryY=1;entryDx=0;entryDy=0;" edge="1" parent="1" source="pAZlCPyRJkJAHvEVyCS2-25" target="jK_DcaLakZgWedDVneFn-19">
          <mxGeometry x="0.7241" y="-40" relative="1" as="geometry">
            <mxPoint x="360" y="260" as="sourcePoint" />
            <mxPoint x="140" y="80" as="targetPoint" />
            <Array as="points">
              <mxPoint x="80" y="310" />
              <mxPoint x="80" y="210" />
              <mxPoint x="80" y="120" />
              <mxPoint x="120" y="120" />
            </Array>
            <mxPoint as="offset" />
          </mxGeometry>
        </mxCell>
        <mxCell id="pAZlCPyRJkJAHvEVyCS2-27" value=":TreeSpecies" style="resizable=0;html=1;align=center;verticalAlign=top;labelBackgroundColor=none;" connectable="0" vertex="1" parent="pAZlCPyRJkJAHvEVyCS2-26">
          <mxGeometry relative="1" as="geometry">
            <mxPoint y="-95" as="offset" />
          </mxGeometry>
        </mxCell>
      </root>
    </mxGraphModel>
  </diagram>
</mxfile>
